# xmcd
# 
# Track frame offsets:
#     150
#     39677
#     65235
#     82662
#     113020
#     144355
#     165580
#     201407
#     220075
#     243227
# 
# Disc length: 3615
# 
# Revision: 0
# Processed by: cddbd v1.5.2PL0 Copyright (c) Steve Scherf et al.
# Submitted via: BonkEnc v1.0.8
# 
DISCID=870e1d0a
DTITLE=Marc Copland, John Abercrombie, Gary Peacock, Jeff Hirshfield - My Foolish Heart
DYEAR=1988
DGENRE=Contemporary Jazz
TTITLE0=Snow Fall
TTITLE1=My Foolish Heart
TTITLE2=Walkin'
TTITLE3=So Long Ago
TTITLE4=I Fall In Love Too Easily
TTITLE5=When Will The BLues Leave
TTITLE6=At Night
TTITLE7=Mash
TTITLE8=Just In Time
TTITLE9=In BLues
EXTD=YEAR: 1988
EXTT0=
EXTT1=
EXTT2=
EXTT3=
EXTT4=
EXTT5=
EXTT6=
EXTT7=
EXTT8=
EXTT9=
PLAYORDER=
